<svg width="330" height="32" viewBox="0 0 330 32" fill="none" xmlns="http://www.w3.org/2000/svg">
<path d="M290.31 10.861C289.646 10.861 289.075 10.7467 288.583 10.5295C288.092 10.3122 287.68 10.015 287.36 9.64915C287.04 9.2833 286.8 8.86029 286.64 8.38012C286.48 7.89995 286.411 7.40833 286.411 6.9053V0.594482H287.817V6.82528C287.817 7.16826 287.863 7.4998 287.943 7.84278C288.023 8.17433 288.172 8.48301 288.366 8.74596C288.56 9.00891 288.812 9.22614 289.132 9.3862C289.452 9.54626 289.841 9.62628 290.31 9.62628C290.767 9.62628 291.167 9.54626 291.487 9.3862C291.807 9.22614 292.07 9.00891 292.253 8.74596C292.447 8.48301 292.585 8.18576 292.676 7.84278C292.756 7.51124 292.802 7.16826 292.802 6.82528V0.594482H294.208V6.9053C294.208 7.41977 294.128 7.91138 293.979 8.38012C293.819 8.86029 293.579 9.2833 293.259 9.64915C292.939 10.015 292.527 10.3122 292.036 10.5295C291.556 10.7467 290.973 10.861 290.31 10.861Z" fill="#706F6F"/>
<path d="M302.474 2.43518C302.279 2.16079 302.005 1.94356 301.662 1.76064C301.319 1.58915 300.942 1.49769 300.519 1.49769C300.29 1.49769 300.062 1.53199 299.833 1.58916C299.604 1.64632 299.387 1.74921 299.204 1.8864C299.021 2.02359 298.861 2.19509 298.747 2.40088C298.632 2.60667 298.564 2.84675 298.564 3.13257C298.564 3.40695 298.621 3.6356 298.724 3.81852C298.827 4.00144 298.975 4.1615 299.158 4.28726C299.341 4.41302 299.558 4.52735 299.81 4.60738C300.062 4.69884 300.325 4.79031 300.61 4.88177C300.953 4.98466 301.296 5.09898 301.639 5.23618C301.982 5.37337 302.302 5.54485 302.588 5.76207C302.874 5.97929 303.103 6.25368 303.286 6.57379C303.468 6.90534 303.548 7.31692 303.548 7.80852C303.548 8.32299 303.457 8.78029 303.263 9.15757C303.068 9.53485 302.817 9.85496 302.497 10.1065C302.177 10.358 301.799 10.5409 301.388 10.6667C300.965 10.7924 300.53 10.8496 300.096 10.8496C299.467 10.8496 298.85 10.7238 298.267 10.4838C297.672 10.2437 297.192 9.87783 296.803 9.39766L297.889 8.48305C298.129 8.83746 298.438 9.11185 298.838 9.32907C299.238 9.54629 299.661 9.64918 300.13 9.64918C300.37 9.64918 300.599 9.61489 300.839 9.54629C301.079 9.4777 301.285 9.3748 301.479 9.23761C301.674 9.10041 301.834 8.91748 301.959 8.7117C302.085 8.49448 302.142 8.24296 302.142 7.94571C302.142 7.64846 302.074 7.38551 301.948 7.19115C301.822 6.98536 301.651 6.81388 301.433 6.67668C301.216 6.53949 300.965 6.41374 300.679 6.31085C300.393 6.20795 300.084 6.11649 299.764 6.00216C299.444 5.9107 299.124 5.79637 298.815 5.65918C298.507 5.52199 298.221 5.35051 297.981 5.13329C297.741 4.91607 297.535 4.66454 297.386 4.34443C297.238 4.03575 297.158 3.64703 297.158 3.17829C297.158 2.67526 297.261 2.25224 297.466 1.8864C297.672 1.53199 297.935 1.23474 298.255 0.994652C298.587 0.754566 298.953 0.58308 299.364 0.480186C299.776 0.365859 300.187 0.320129 300.599 0.320129C301.182 0.320129 301.731 0.423028 302.245 0.628816C302.76 0.834604 303.171 1.12042 303.48 1.4634L302.474 2.43518Z" fill="#706F6F"/>
<path d="M324.493 5.57916C324.493 5.03039 324.402 4.51592 324.219 4.02432C324.036 3.54415 323.784 3.10969 323.453 2.74385C323.121 2.378 322.721 2.08076 322.252 1.87497C321.784 1.65775 321.258 1.55486 320.675 1.55486C320.103 1.55486 319.577 1.65775 319.108 1.87497C318.64 2.08076 318.239 2.378 317.919 2.74385C317.588 3.10969 317.336 3.54415 317.165 4.02432C316.982 4.51592 316.89 5.03039 316.89 5.57916C316.89 6.13936 316.982 6.66525 317.165 7.15685C317.348 7.64846 317.599 8.07148 317.931 8.43732C318.262 8.80317 318.663 9.08899 319.12 9.29477C319.577 9.50056 320.103 9.60344 320.675 9.60344C321.246 9.60344 321.772 9.50056 322.252 9.29477C322.721 9.08899 323.121 8.80317 323.453 8.43732C323.784 8.07148 324.036 7.64846 324.219 7.15685C324.402 6.65382 324.493 6.12793 324.493 5.57916ZM326.014 5.57916C326.014 6.35658 325.877 7.06541 325.614 7.70563C325.351 8.3573 324.973 8.90605 324.505 9.37479C324.036 9.84353 323.476 10.2094 322.824 10.4609C322.172 10.7238 321.463 10.8496 320.697 10.8496C319.932 10.8496 319.223 10.7238 318.582 10.4609C317.931 10.1979 317.382 9.8321 316.902 9.37479C316.433 8.90605 316.056 8.34586 315.793 7.70563C315.53 7.05397 315.393 6.34515 315.393 5.57916C315.393 4.80174 315.53 4.08148 315.793 3.42981C316.056 2.77815 316.422 2.22939 316.902 1.77208C317.371 1.31478 317.931 0.960354 318.582 0.708836C319.234 0.457317 319.932 0.320129 320.697 0.320129C321.463 0.320129 322.172 0.445884 322.824 0.708836C323.476 0.960354 324.036 1.31478 324.505 1.77208C324.973 2.22939 325.351 2.77815 325.614 3.42981C325.877 4.07004 326.014 4.79031 326.014 5.57916Z" fill="#706F6F"/>
<path d="M252.479 30.5138H254.239C254.845 30.5138 255.406 30.4223 255.92 30.2622C256.435 30.0908 256.88 29.8507 257.246 29.5305C257.624 29.2104 257.909 28.8103 258.115 28.3416C258.321 27.8728 258.424 27.3355 258.424 26.741C258.424 26.1236 258.321 25.5749 258.115 25.0947C257.909 24.626 257.612 24.2258 257.246 23.9171C256.869 23.597 256.435 23.3569 255.92 23.1969C255.406 23.0368 254.845 22.9453 254.239 22.9453H252.479V30.5138ZM251.084 21.722H254.525C255.166 21.722 255.806 21.8135 256.446 22.0079C257.086 22.1908 257.669 22.488 258.184 22.8996C258.698 23.3112 259.121 23.8257 259.441 24.4545C259.761 25.0833 259.922 25.8492 259.922 26.7296C259.922 27.587 259.761 28.3301 259.441 28.9589C259.121 29.5877 258.698 30.1022 258.184 30.5138C257.658 30.9253 257.086 31.234 256.446 31.4284C255.806 31.6341 255.166 31.7371 254.525 31.7371H251.084V21.722Z" fill="#706F6F"/>
<path d="M293.476 26.7181C293.476 26.1694 293.385 25.6549 293.202 25.1633C293.019 24.6831 292.768 24.2487 292.436 23.8829C292.104 23.517 291.704 23.2198 291.236 23.014C290.767 22.7967 290.241 22.6939 289.658 22.6939C289.086 22.6939 288.56 22.7967 288.092 23.014C287.623 23.2198 287.223 23.517 286.903 23.8829C286.571 24.2487 286.319 24.6831 286.148 25.1633C285.965 25.6549 285.874 26.1694 285.874 26.7181C285.874 27.2783 285.965 27.8042 286.148 28.2958C286.331 28.7875 286.582 29.2105 286.914 29.5763C287.246 29.9421 287.646 30.228 288.103 30.4338C288.56 30.6395 289.086 30.7425 289.658 30.7425C290.229 30.7425 290.755 30.6395 291.236 30.4338C291.704 30.228 292.104 29.9421 292.436 29.5763C292.768 29.2105 293.019 28.7875 293.202 28.2958C293.385 27.8042 293.476 27.2783 293.476 26.7181ZM294.985 26.7181C294.985 27.4956 294.848 28.2044 294.585 28.8446C294.322 29.4963 293.945 30.045 293.476 30.5138C293.008 30.9825 292.447 31.3484 291.796 31.5999C291.144 31.8629 290.435 31.9886 289.669 31.9886C288.903 31.9886 288.194 31.8629 287.554 31.5999C286.903 31.337 286.354 30.9711 285.874 30.5138C285.405 30.045 285.028 29.4849 284.765 28.8446C284.502 28.193 284.365 27.4841 284.365 26.7181C284.365 25.9407 284.502 25.2205 284.765 24.5688C285.028 23.9171 285.393 23.3684 285.874 22.9111C286.342 22.4538 286.903 22.0993 287.554 21.8478C288.206 21.5963 288.903 21.4591 289.669 21.4591C290.435 21.4591 291.144 21.5849 291.796 21.8478C292.447 22.0993 293.008 22.4538 293.476 22.9111C293.945 23.3684 294.322 23.9171 294.585 24.5688C294.848 25.2205 294.985 25.9407 294.985 26.7181Z" fill="#706F6F"/>
<path d="M252.479 9.35193H257.715V10.5981H251.084V0.571655H257.509V1.80638H252.479V4.81318H257.212V6.01359H252.479V9.35193Z" fill="#706F6F"/>
<path d="M261.911 9.35193H266.381V10.5981H260.505V0.571655H261.911V9.35193Z" fill="#706F6F"/>
<path d="M277.974 8.27727H277.996L280.958 0.571655H283.141V10.5981H281.735V2.21796H281.712L278.374 10.5981H277.482L274.178 2.21796H274.144V10.5981H272.783V0.571655H274.967L277.974 8.27727Z" fill="#706F6F"/>
<path d="M299.216 30.5138H300.976C301.582 30.5138 302.142 30.4223 302.657 30.2622C303.171 30.0908 303.617 29.8507 303.983 29.5305C304.36 29.2104 304.646 28.8103 304.852 28.3416C305.058 27.8728 305.16 27.3355 305.16 26.741C305.16 26.1236 305.058 25.5749 304.852 25.0947C304.646 24.626 304.349 24.2258 303.983 23.9171C303.606 23.597 303.171 23.3569 302.657 23.1969C302.142 23.0368 301.582 22.9453 300.976 22.9453H299.216V30.5138ZM297.821 21.722H301.262C301.902 21.722 302.542 21.8135 303.183 22.0079C303.823 22.1908 304.406 22.488 304.92 22.8996C305.435 23.3112 305.858 23.8257 306.178 24.4545C306.498 25.0833 306.658 25.8492 306.658 26.7296C306.658 27.587 306.498 28.3301 306.178 28.9589C305.858 29.5877 305.435 30.1022 304.92 30.5138C304.395 30.9253 303.823 31.234 303.183 31.4284C302.542 31.6341 301.902 31.7371 301.262 31.7371H297.821V21.722Z" fill="#706F6F"/>
<path d="M318.114 26.7181C318.114 26.1694 318.022 25.6549 317.839 25.1633C317.656 24.6831 317.405 24.2487 317.073 23.8829C316.742 23.517 316.342 23.2198 315.873 23.014C315.404 22.7967 314.878 22.6939 314.295 22.6939C313.724 22.6939 313.198 22.7967 312.729 23.014C312.26 23.2198 311.86 23.517 311.54 23.8829C311.208 24.2487 310.957 24.6831 310.785 25.1633C310.602 25.6549 310.511 26.1694 310.511 26.7181C310.511 27.2783 310.602 27.8042 310.785 28.2958C310.968 28.7875 311.22 29.2105 311.551 29.5763C311.883 29.9421 312.283 30.228 312.74 30.4338C313.198 30.6395 313.724 30.7425 314.295 30.7425C314.867 30.7425 315.393 30.6395 315.873 30.4338C316.342 30.228 316.742 29.9421 317.073 29.5763C317.405 29.2105 317.656 28.7875 317.839 28.2958C318.022 27.8042 318.114 27.2783 318.114 26.7181ZM319.623 26.7181C319.623 27.4956 319.486 28.2044 319.223 28.8446C318.96 29.4963 318.582 30.045 318.114 30.5138C317.645 30.9825 317.085 31.3484 316.433 31.5999C315.781 31.8629 315.073 31.9886 314.307 31.9886C313.541 31.9886 312.832 31.8629 312.192 31.5999C311.54 31.337 310.991 30.9711 310.511 30.5138C310.042 30.045 309.665 29.4849 309.402 28.8446C309.139 28.193 309.002 27.4841 309.002 26.7181C309.002 25.9407 309.139 25.2205 309.402 24.5688C309.665 23.9171 310.031 23.3684 310.511 22.9111C310.98 22.4538 311.54 22.0993 312.192 21.8478C312.843 21.5963 313.541 21.4591 314.307 21.4591C315.073 21.4591 315.781 21.5849 316.433 21.8478C317.085 22.0993 317.645 22.4538 318.114 22.9111C318.582 23.3684 318.96 23.9171 319.223 24.5688C319.486 25.2205 319.623 25.9407 319.623 26.7181Z" fill="#706F6F"/>
<path d="M327.443 23.5856C327.248 23.3112 326.974 23.094 326.631 22.9111C326.288 22.7396 325.911 22.6481 325.488 22.6481C325.259 22.6481 325.03 22.6825 324.802 22.7396C324.573 22.7968 324.356 22.8997 324.173 23.0368C323.99 23.174 323.83 23.3455 323.716 23.5513C323.601 23.7571 323.533 23.9972 323.533 24.283C323.533 24.5574 323.59 24.786 323.693 24.969C323.796 25.1519 323.944 25.312 324.127 25.4377C324.31 25.5635 324.527 25.6778 324.779 25.7578C325.03 25.8493 325.293 25.9407 325.579 26.0322C325.922 26.1351 326.265 26.2494 326.608 26.3866C326.951 26.5238 327.271 26.6953 327.557 26.9125C327.843 27.1298 328.072 27.4041 328.254 27.7242C328.437 28.0558 328.517 28.4674 328.517 28.959C328.517 29.4734 328.426 29.9308 328.232 30.308C328.037 30.6853 327.786 31.0054 327.466 31.2569C327.146 31.5085 326.768 31.6914 326.357 31.8171C325.934 31.9429 325.499 32 325.065 32C324.436 32 323.819 31.8743 323.236 31.6342C322.652 31.3941 322.161 31.0283 321.772 30.5481L322.858 29.6335C323.098 29.9879 323.407 30.2623 323.807 30.4795C324.207 30.6967 324.63 30.7996 325.099 30.7996C325.339 30.7996 325.568 30.7653 325.808 30.6967C326.048 30.6281 326.254 30.5252 326.448 30.388C326.642 30.2508 326.803 30.0679 326.928 29.8621C327.054 29.6449 327.111 29.3934 327.111 29.0962C327.111 28.7989 327.043 28.536 326.917 28.3416C326.791 28.1358 326.62 27.9643 326.402 27.8271C326.185 27.6899 325.934 27.5642 325.648 27.4613C325.362 27.3584 325.053 27.2669 324.733 27.1526C324.413 27.0612 324.093 26.9468 323.784 26.8096C323.476 26.6725 323.19 26.5009 322.95 26.2837C322.71 26.0665 322.504 25.815 322.355 25.4949C322.207 25.1862 322.127 24.7975 322.127 24.3287C322.127 23.8257 322.229 23.4027 322.435 23.0368C322.641 22.6824 322.904 22.3852 323.224 22.1451C323.556 21.905 323.922 21.7335 324.333 21.6307C324.745 21.5163 325.156 21.4706 325.568 21.4706C326.151 21.4706 326.7 21.5735 327.214 21.7793C327.729 21.985 328.14 22.2709 328.449 22.6138L327.443 23.5856Z" fill="#706F6F"/>
<path d="M197.076 31.7599H201.695V30.5481H198.437V24.1115H197.076V31.7599ZM183.083 28.8332L184.283 25.7235L185.461 28.8332H183.083ZM180.396 31.7599H181.916L182.614 30.0107H185.929L186.638 31.7599H188.193L184.9 24.1115H183.723L180.396 31.7599ZM164.779 31.7599H166.139V25.8492H166.162L169.798 31.7599H171.524V24.1115H170.164V29.8393H170.141L166.585 24.1115H164.779V31.7599ZM148.773 26.8096C148.899 26.4666 149.082 26.1808 149.311 25.9293C149.539 25.6778 149.814 25.4834 150.134 25.3348C150.454 25.1862 150.808 25.1176 151.208 25.1176C151.608 25.1176 151.963 25.1862 152.294 25.3348C152.615 25.4834 152.9 25.6778 153.129 25.9293C153.358 26.1808 153.541 26.4781 153.666 26.8096C153.792 27.1526 153.861 27.5184 153.861 27.9071C153.861 28.3187 153.804 28.696 153.666 29.039C153.541 29.3819 153.358 29.6792 153.129 29.9307C152.889 30.1822 152.615 30.3766 152.294 30.5252C151.974 30.6624 151.62 30.731 151.231 30.731C150.843 30.731 150.488 30.6624 150.168 30.5252C149.848 30.388 149.573 30.1937 149.333 29.9307C149.093 29.6792 148.922 29.3819 148.796 29.039C148.67 28.696 148.602 28.3187 148.602 27.9071C148.59 27.507 148.647 27.1412 148.773 26.8096ZM147.413 29.542C147.618 30.0336 147.904 30.4566 148.27 30.8224C148.636 31.1769 149.07 31.4513 149.562 31.657C150.065 31.8514 150.602 31.9543 151.197 31.9543C151.791 31.9543 152.352 31.8514 152.855 31.657C153.358 31.4627 153.792 31.1769 154.158 30.8224C154.524 30.468 154.81 30.045 155.015 29.542C155.221 29.0504 155.324 28.5016 155.324 27.9071C155.324 27.3012 155.221 26.741 155.015 26.2494C154.81 25.7578 154.524 25.3348 154.158 24.9918C153.792 24.6488 153.358 24.3744 152.855 24.1915C152.352 24.0086 151.803 23.9171 151.197 23.9171C150.602 23.9171 150.065 24.0086 149.562 24.1915C149.059 24.3744 148.625 24.6488 148.27 24.9918C147.904 25.3348 147.618 25.7578 147.413 26.2494C147.207 26.741 147.104 27.2898 147.104 27.9071C147.104 28.5016 147.207 29.0504 147.413 29.542ZM136.3 31.7599H137.661V24.1115H136.3V31.7599ZM127.211 25.0718C127.063 24.866 126.88 24.6946 126.662 24.5574C126.445 24.4087 126.217 24.2944 125.965 24.1915C125.725 24.0886 125.462 24.02 125.199 23.9743C124.936 23.9286 124.673 23.9057 124.433 23.9057C123.839 23.9057 123.301 23.9972 122.787 24.1801C122.284 24.363 121.849 24.6374 121.472 24.9804C121.106 25.3234 120.809 25.7464 120.603 26.238C120.386 26.7296 120.283 27.2783 120.283 27.8957C120.283 28.4902 120.386 29.0389 120.58 29.5305C120.786 30.0222 121.06 30.4452 121.426 30.811C121.792 31.1654 122.215 31.4398 122.718 31.6456C123.221 31.8514 123.77 31.9429 124.364 31.9429C125.016 31.9429 125.599 31.8285 126.079 31.5884C126.571 31.3484 126.983 31.0282 127.326 30.6052L126.228 29.8393C126.034 30.1022 125.782 30.3194 125.462 30.4795C125.142 30.6395 124.776 30.7196 124.376 30.7196C123.976 30.7196 123.621 30.651 123.301 30.5138C122.981 30.3766 122.718 30.1822 122.489 29.9307C122.261 29.6792 122.089 29.3819 121.964 29.039C121.838 28.696 121.781 28.3073 121.781 27.8957C121.781 27.4955 121.849 27.1297 121.975 26.7982C122.101 26.4552 122.284 26.1694 122.512 25.9179C122.741 25.6663 123.027 25.472 123.347 25.3233C123.667 25.1747 124.033 25.1061 124.433 25.1061C124.742 25.1061 125.062 25.1633 125.382 25.289C125.702 25.4148 125.965 25.6092 126.171 25.895L127.211 25.0718ZM106.85 28.8332L108.05 25.7235L109.228 28.8332H106.85ZM104.163 31.7599H105.683L106.369 30.0107H109.685L110.394 31.7599H111.949L108.656 24.1115H107.478L104.163 31.7599ZM88.5459 31.7599H89.9064V25.8492H89.9293L93.5649 31.7599H95.2912V24.1115H93.9307V29.8393H93.9078L90.3523 24.1115H88.5459V31.7599ZM66.1379 26.8096C66.2637 26.4666 66.4466 26.1808 66.6753 25.9293C66.9039 25.6778 67.1783 25.4834 67.4984 25.3348C67.8185 25.1862 68.1729 25.1176 68.5731 25.1176C68.9732 25.1176 69.3276 25.1862 69.6478 25.3348C69.9679 25.4834 70.2537 25.6778 70.4823 25.9293C70.711 26.1808 70.8939 26.4781 71.0197 26.8096C71.1454 27.1526 71.214 27.5184 71.214 27.9071C71.214 28.3187 71.1454 28.696 71.0197 29.039C70.8939 29.3819 70.711 29.6792 70.4823 29.9307C70.2423 30.1822 69.9679 30.3766 69.6478 30.5252C69.3276 30.6624 68.9618 30.731 68.5845 30.731C68.1958 30.731 67.8414 30.6624 67.5213 30.5252C67.2012 30.388 66.9268 30.1937 66.6867 29.9307C66.4466 29.6792 66.2751 29.3819 66.1494 29.039C66.0236 28.696 65.955 28.3187 65.955 27.9071C65.9436 27.507 66.0007 27.1412 66.1379 26.8096ZM64.766 29.542C64.9718 30.0336 65.2576 30.4566 65.6235 30.8224C65.9893 31.1769 66.4238 31.4513 66.9154 31.657C67.4184 31.8514 67.9671 31.9543 68.5502 31.9543C69.1447 31.9543 69.7049 31.8514 70.2079 31.657C70.711 31.4627 71.1454 31.1769 71.5113 30.8224C71.8771 30.468 72.1629 30.045 72.3687 29.542C72.5745 29.0504 72.6774 28.5016 72.6774 27.9071C72.6774 27.3012 72.5745 26.741 72.3687 26.2494C72.1629 25.7578 71.8771 25.3348 71.5113 24.9918C71.1454 24.6488 70.711 24.3744 70.2079 24.1915C69.7049 24.0086 69.1562 23.9171 68.5502 23.9171C67.9557 23.9171 67.4184 24.0086 66.9154 24.1915C66.4123 24.3744 65.9779 24.6488 65.6235 24.9918C65.2576 25.3348 64.9718 25.7578 64.766 26.2494C64.5602 26.741 64.4573 27.2898 64.4573 27.9071C64.4573 28.5016 64.5602 29.0504 64.766 29.542ZM50.1093 31.7599H55.3684V30.5481H51.4698V28.3873H54.9797V27.244H51.4698V25.3005H55.174V24.1115H50.1093V31.7599ZM40.5745 24.7289C40.2773 24.4545 39.9343 24.2487 39.5341 24.1115C39.134 23.9743 38.7453 23.9057 38.3451 23.9057C38.0022 23.9057 37.6592 23.9514 37.3276 24.0429C36.9961 24.1343 36.6988 24.2716 36.4359 24.4545C36.1729 24.6374 35.9557 24.866 35.7956 25.1519C35.6356 25.4377 35.5556 25.7692 35.5556 26.1579C35.5556 26.5238 35.6127 26.821 35.7271 27.0611C35.8414 27.3012 35.99 27.507 36.1729 27.6671C36.3559 27.8385 36.5616 27.9643 36.7903 28.0672C37.0189 28.1701 37.2476 28.2501 37.4877 28.3301C37.7278 28.4102 37.9564 28.4902 38.1736 28.5588C38.3909 28.6274 38.5738 28.7189 38.7338 28.8103C38.8939 28.9018 39.0197 29.0275 39.1111 29.1533C39.2026 29.2905 39.2483 29.4505 39.2483 29.6563C39.2483 29.8621 39.2026 30.0336 39.1226 30.1822C39.0425 30.3194 38.9282 30.4452 38.8024 30.5366C38.6653 30.6281 38.5166 30.6967 38.3566 30.7424C38.1965 30.7767 38.025 30.7996 37.8764 30.7996C37.5791 30.7996 37.2705 30.7195 36.9503 30.5709C36.6417 30.4223 36.3901 30.2165 36.1958 29.9536L35.224 30.8567C35.5213 31.2226 35.91 31.4856 36.3902 31.6685C36.8703 31.8514 37.3505 31.9429 37.8535 31.9429C38.2308 31.9429 38.5852 31.8971 38.9282 31.7942C39.2712 31.6913 39.557 31.5427 39.82 31.3369C40.0715 31.1311 40.2773 30.8796 40.4259 30.5709C40.5745 30.2622 40.6545 29.9078 40.6545 29.4963C40.6545 29.119 40.5859 28.8103 40.4487 28.5588C40.3115 28.3073 40.1286 28.1015 39.9114 27.93C39.6942 27.7699 39.4541 27.6327 39.1912 27.5298C38.9282 27.4269 38.6767 27.3355 38.4252 27.2555C38.2079 27.1869 38.0136 27.1297 37.8307 27.0611C37.6477 26.9925 37.4991 26.9239 37.3734 26.8325C37.2476 26.741 37.1447 26.6381 37.0761 26.5238C37.0075 26.398 36.9618 26.2494 36.9618 26.0779C36.9618 25.895 37.0075 25.7349 37.0875 25.5977C37.1676 25.4606 37.2819 25.3576 37.4077 25.2776C37.5334 25.1976 37.682 25.129 37.8421 25.0947C38.0022 25.049 38.1622 25.0375 38.3223 25.0375C38.5852 25.0375 38.8482 25.0947 39.1111 25.2204C39.3741 25.3462 39.5799 25.5063 39.717 25.6892L40.5745 24.7289ZM26.0436 24.1H24.6831V28.8903C24.6831 29.119 24.6602 29.3362 24.5916 29.5534C24.5345 29.7707 24.443 29.965 24.3058 30.1479C24.1686 30.3194 23.9971 30.4566 23.7799 30.5709C23.5627 30.6853 23.2883 30.731 22.9682 30.731C22.6481 30.731 22.3737 30.6738 22.1565 30.5709C21.9393 30.468 21.7563 30.3194 21.6306 30.1479C21.4934 29.9764 21.4019 29.7821 21.3448 29.5534C21.2876 29.3362 21.2533 29.1075 21.2533 28.8903V24.1H19.8928V28.9361C19.8928 29.3934 19.9729 29.8164 20.1215 30.1822C20.2815 30.5595 20.4873 30.8682 20.7731 31.1311C21.0475 31.3941 21.3791 31.5884 21.7449 31.7256C22.1222 31.8628 22.5223 31.9314 22.9682 31.9314C23.4026 31.9314 23.8142 31.8628 24.1915 31.7256C24.5688 31.5884 24.8889 31.3827 25.1633 31.1311C25.4377 30.8682 25.6549 30.5595 25.8149 30.1822C25.975 29.8164 26.055 29.3934 26.055 28.9361V24.1H26.0436ZM1.87495 31.7599H3.16684V25.6092H3.18971L5.47624 31.7599H6.42515L8.74598 25.6092H8.76884V31.7599H10.1179V24.1115H7.97999L6.01358 29.542H5.97927L3.98999 24.1115H1.86352V31.7599H1.87495Z" fill="black"/>
<path d="M195.659 7.06537L197.373 2.60664L199.065 7.06537H195.659ZM191.817 11.2497H194.001L194.995 8.73455H199.751L200.769 11.2497H202.998L198.277 0.27439H196.585L191.817 11.2497ZM181.459 11.2497H189.839V9.51198H183.746L189.748 2.04644V0.27439H181.551V1.97785H187.427L181.459 9.47767V11.2497ZM178.544 1.17756C178.121 0.788852 177.618 0.491598 177.046 0.297243C176.475 0.102888 175.903 0 175.354 0C174.863 0 174.371 0.0685939 173.891 0.194353C173.411 0.320112 172.988 0.525905 172.61 0.788856C172.233 1.05181 171.924 1.38335 171.696 1.78349C171.467 2.18363 171.341 2.66382 171.341 3.22402C171.341 3.73849 171.421 4.17292 171.593 4.5159C171.753 4.85888 171.97 5.15613 172.233 5.39622C172.496 5.6363 172.793 5.83066 173.125 5.96785C173.456 6.11647 173.788 6.24224 174.119 6.34513C174.462 6.45946 174.782 6.56234 175.091 6.67667C175.4 6.77956 175.674 6.90533 175.891 7.04252C176.12 7.17971 176.303 7.3512 176.44 7.53412C176.577 7.72847 176.646 7.96856 176.646 8.25438C176.646 8.55163 176.589 8.80315 176.463 9.00894C176.349 9.21473 176.189 9.37479 175.994 9.51198C175.8 9.64917 175.594 9.74063 175.354 9.7978C175.114 9.85496 174.885 9.87782 174.657 9.87782C174.222 9.87782 173.776 9.77492 173.331 9.5577C172.885 9.34048 172.519 9.04323 172.256 8.67738L170.861 9.98071C171.296 10.4952 171.856 10.8839 172.53 11.1468C173.216 11.4098 173.914 11.547 174.622 11.547C175.16 11.547 175.674 11.4784 176.154 11.3298C176.635 11.1811 177.058 10.9639 177.423 10.6781C177.789 10.3923 178.075 10.0264 178.292 9.58057C178.51 9.14613 178.612 8.63166 178.612 8.03716C178.612 7.49982 178.51 7.05396 178.315 6.68811C178.109 6.32227 177.858 6.02501 177.538 5.78492C177.218 5.54484 176.875 5.35048 176.497 5.21329C176.12 5.06466 175.754 4.93891 175.4 4.82458C175.091 4.73312 174.805 4.64165 174.554 4.55019C174.291 4.45873 174.074 4.34441 173.891 4.23008C173.708 4.10432 173.571 3.9557 173.468 3.78421C173.365 3.61272 173.308 3.3955 173.308 3.14398C173.308 2.88103 173.365 2.64094 173.491 2.45801C173.605 2.26366 173.765 2.11505 173.948 1.98929C174.131 1.87496 174.337 1.78349 174.565 1.72633C174.794 1.66916 175.023 1.64631 175.251 1.64631C175.629 1.64631 176.017 1.73776 176.395 1.92068C176.772 2.1036 177.058 2.32083 177.275 2.59522L178.544 1.17756ZM165.762 11.2497H167.717V0.27439H165.762V11.2497ZM149.951 11.2497H151.814V2.43516H151.849L155.13 11.2497H156.49L159.817 2.43516H159.851V11.2497H161.795V0.27439H158.731L155.907 8.07145H155.861L153.015 0.27439H149.962V11.2497H149.951ZM138.953 11.2497H146.498V9.51198H140.908V6.41372H145.938V4.76742H140.908V1.97785H146.224V0.27439H138.953V11.2497ZM125.313 11.2497H127.268V2.77813H127.303L132.505 11.2497H134.985V0.27439H133.03V8.48303H132.996L127.897 0.27439H125.313V11.2497ZM115.973 5.00751V1.92068H117.745C117.996 1.92068 118.248 1.94355 118.511 1.97785C118.774 2.02358 119.014 2.09217 119.22 2.20649C119.426 2.32082 119.597 2.46946 119.734 2.66381C119.871 2.85817 119.94 3.09825 119.94 3.3955C119.94 3.72705 119.871 4.00142 119.723 4.20721C119.574 4.42443 119.391 4.5845 119.174 4.69882C118.957 4.81315 118.705 4.89318 118.419 4.92747C118.134 4.96177 117.859 4.98464 117.585 4.98464H115.973V5.00751ZM114.018 11.2497H115.973V6.59665H117.402L119.94 11.2497H122.295L119.368 6.37943C120.146 6.20794 120.752 5.86496 121.209 5.36192C121.655 4.85888 121.884 4.20722 121.884 3.41837C121.884 2.83531 121.769 2.35512 121.541 1.94355C121.312 1.54341 121.015 1.21187 120.637 0.971783C120.26 0.720264 119.826 0.548773 119.346 0.434447C118.854 0.32012 118.362 0.27439 117.836 0.27439H114.029V11.2497H114.018ZM101.179 4.15006C101.362 3.66989 101.613 3.24688 101.945 2.88103C102.277 2.51519 102.677 2.22937 103.134 2.02359C103.591 1.8178 104.106 1.7149 104.677 1.7149C105.249 1.7149 105.764 1.8178 106.232 2.02359C106.701 2.22937 107.09 2.51519 107.421 2.88103C107.753 3.24688 108.004 3.66989 108.187 4.15006C108.37 4.63023 108.462 5.16756 108.462 5.72776C108.462 6.32225 108.37 6.85959 108.187 7.35119C108.004 7.8428 107.753 8.26582 107.41 8.63166C107.078 8.99751 106.678 9.27188 106.209 9.47767C105.741 9.68345 105.238 9.77493 104.677 9.77493C104.117 9.77493 103.614 9.67202 103.157 9.47767C102.7 9.27188 102.299 8.99751 101.968 8.63166C101.636 8.26582 101.373 7.8428 101.19 7.35119C101.008 6.85959 100.916 6.32225 100.916 5.72776C100.905 5.16756 100.996 4.64166 101.179 4.15006ZM99.2241 8.0829C99.5213 8.79172 99.9329 9.39764 100.447 9.91211C100.973 10.4266 101.591 10.8267 102.311 11.1011C103.031 11.3869 103.809 11.5241 104.655 11.5241C105.512 11.5241 106.301 11.3869 107.021 11.1011C107.741 10.8153 108.37 10.4151 108.896 9.91211C109.422 9.39764 109.834 8.79172 110.131 8.0829C110.428 7.37407 110.577 6.59665 110.577 5.7392C110.577 4.85888 110.428 4.07003 110.131 3.3612C109.834 2.65238 109.422 2.05788 108.896 1.55484C108.37 1.05181 107.741 0.674528 107.021 0.411576C106.301 0.137193 105.512 0.0114264 104.655 0.0114264C103.809 0.0114264 103.02 0.148625 102.311 0.411576C101.591 0.674528 100.973 1.06324 100.447 1.55484C99.9214 2.04645 99.5213 2.65238 99.2241 3.3612C98.9268 4.07003 98.7782 4.85888 98.7782 5.7392C98.7782 6.59665 98.9268 7.37407 99.2241 8.0829ZM89.6892 6.41372H91.5184C92.3187 6.41372 92.9018 6.52805 93.3019 6.75671C93.6906 6.98536 93.8964 7.3855 93.8964 7.96856C93.8964 8.33441 93.8164 8.62022 93.6564 8.83744C93.4963 9.05466 93.2905 9.22616 93.0504 9.32905C92.8103 9.44338 92.5359 9.51197 92.2501 9.5577C91.9643 9.592 91.6899 9.61487 91.4498 9.61487H89.7006V6.41372H89.6892ZM89.6892 1.89783H91.2555C91.9986 1.89783 92.5474 2.00071 92.9018 2.20649C93.2562 2.41228 93.4277 2.76671 93.4277 3.25831C93.4277 3.73849 93.2562 4.10432 92.9132 4.35584C92.5702 4.61879 92.0786 4.74455 91.427 4.74455H89.6892V1.89783ZM87.7342 11.2497H91.6899C92.2044 11.2497 92.7189 11.1926 93.2105 11.0897C93.7135 10.9753 94.1594 10.8039 94.5481 10.5523C94.9368 10.3008 95.2455 9.98071 95.4856 9.56913C95.7257 9.15755 95.84 8.65453 95.84 8.06003C95.84 7.31691 95.6228 6.72241 95.1769 6.27654C94.731 5.83066 94.1594 5.5677 93.4734 5.46481V5.43051C94.0451 5.25902 94.5024 4.96178 94.8568 4.56164C95.2112 4.16149 95.3827 3.64701 95.3827 3.02965C95.3827 2.53804 95.2798 2.11503 95.0854 1.76062C94.8911 1.40621 94.6281 1.12039 94.3194 0.903172C94.0107 0.674519 93.6449 0.514464 93.2448 0.423003C92.8446 0.331542 92.4331 0.27439 92.0215 0.27439H87.7457V11.2497H87.7342ZM84.3502 5.71633H80.6346V7.29404H84.3502V5.71633ZM67.5899 11.2497H69.5449V2.77813H69.5792L74.781 11.2497H77.2619V0.27439H75.3069V8.48303H75.2726L70.1737 0.27439H67.5899V11.2497ZM56.5802 11.2497H64.1258V9.51198H58.5352V6.41372H63.577V4.76742H58.5352V1.97785H63.8514V0.27439H56.5802V11.2497ZM53.0018 1.17756C52.5788 0.788852 52.0758 0.491598 51.5041 0.297243C50.9325 0.102888 50.3609 0 49.8007 0C49.3091 0 48.8175 0.0685939 48.3373 0.194353C47.8571 0.320112 47.4227 0.525905 47.0568 0.788856C46.6795 1.05181 46.3709 1.38335 46.1422 1.78349C45.9136 2.18363 45.7878 2.66382 45.7878 3.22402C45.7878 3.73849 45.8678 4.17292 46.0393 4.5159C46.1994 4.85888 46.4166 5.15613 46.6796 5.39622C46.9425 5.6363 47.2397 5.83066 47.5713 5.96785C47.9028 6.11647 48.2344 6.24224 48.5659 6.34513C48.9089 6.45946 49.229 6.56234 49.5377 6.67667C49.8464 6.77956 50.1208 6.90533 50.3494 7.04252C50.5781 7.17971 50.761 7.3512 50.8868 7.53412C51.024 7.72847 51.0925 7.96856 51.0925 8.25438C51.0925 8.55163 51.0354 8.80315 50.9096 9.00894C50.7953 9.21473 50.6353 9.37479 50.4409 9.51198C50.2465 9.64917 50.0408 9.74063 49.8007 9.7978C49.5606 9.85496 49.3319 9.87782 49.1033 9.87782C48.6688 9.87782 48.223 9.77492 47.7771 9.5577C47.3312 9.34048 46.9654 9.04323 46.7024 8.67738L45.3076 9.98071C45.7421 10.4952 46.3023 10.8839 46.9768 11.1468C47.6628 11.4098 48.3601 11.547 49.069 11.547C49.6063 11.547 50.1208 11.4784 50.601 11.3298C51.0926 11.1811 51.5041 10.9639 51.87 10.6781C52.2358 10.3923 52.5216 10.0264 52.7389 9.58057C52.9561 9.14613 53.0704 8.63166 53.0704 8.03716C53.0704 7.49982 52.9675 7.05396 52.7732 6.68811C52.5674 6.32227 52.3159 6.02501 51.9957 5.78492C51.6871 5.54484 51.3326 5.35048 50.9554 5.21329C50.5781 5.06466 50.2122 4.93891 49.8578 4.82458C49.5491 4.73312 49.2633 4.64165 49.0004 4.55019C48.7374 4.45873 48.5202 4.34441 48.3373 4.23008C48.1544 4.10432 48.0172 3.9557 47.9143 3.78421C47.8114 3.61272 47.7542 3.3955 47.7542 3.14398C47.7542 2.88103 47.8114 2.64094 47.9257 2.45801C48.04 2.26366 48.2001 2.11505 48.383 1.98929C48.5659 1.87496 48.7717 1.78349 49.0004 1.72633C49.229 1.66916 49.4577 1.64631 49.6863 1.64631C50.0636 1.64631 50.4523 1.73776 50.8296 1.92068C51.2069 2.1036 51.4927 2.32083 51.7099 2.59522L53.0018 1.17756ZM42.5524 1.17756C42.1294 0.788852 41.6263 0.491598 41.0547 0.297243C40.483 0.102888 39.9114 0 39.3626 0C38.871 0 38.3794 0.0685939 37.8993 0.194353C37.4191 0.320112 36.9847 0.525905 36.6188 0.788856C36.2415 1.05181 35.9328 1.38335 35.7042 1.78349C35.4755 2.18363 35.3498 2.66382 35.3498 3.22402C35.3498 3.73849 35.4298 4.17292 35.6013 4.5159C35.7614 4.85888 35.9786 5.15613 36.2415 5.39622C36.5045 5.6363 36.8017 5.83066 37.1333 5.96785C37.4648 6.11647 37.7964 6.24224 38.1279 6.34513C38.4709 6.45946 38.791 6.56234 39.0997 6.67667C39.4084 6.77956 39.6828 6.90533 39.9114 7.04252C40.1401 7.17971 40.323 7.3512 40.4487 7.53412C40.5859 7.72847 40.6545 7.96856 40.6545 8.25438C40.6545 8.55163 40.5974 8.80315 40.4716 9.00894C40.3573 9.21473 40.1972 9.37479 40.0029 9.51198C39.8085 9.64917 39.6027 9.74063 39.3626 9.7978C39.1226 9.85496 38.8939 9.87782 38.6653 9.87782C38.2308 9.87782 37.7849 9.77492 37.3391 9.5577C36.8932 9.34048 36.5273 9.04323 36.2644 8.67738L34.8696 9.98071C35.3041 10.4952 35.8643 10.8839 36.5388 11.1468C37.2247 11.4098 37.9221 11.547 38.631 11.547C39.1683 11.547 39.6828 11.4784 40.1629 11.3298C40.6431 11.1811 41.0661 10.9639 41.432 10.6781C41.7978 10.3923 42.0836 10.0264 42.3008 9.58057C42.5181 9.14613 42.6324 8.63166 42.6324 8.03716C42.6324 7.49982 42.5295 7.05396 42.3351 6.68811C42.1408 6.32227 41.8778 6.02501 41.5577 5.78492C41.2376 5.54484 40.8946 5.35048 40.5173 5.21329C40.1401 5.06466 39.7742 4.93891 39.4198 4.82458C39.1111 4.73312 38.8253 4.64165 38.5624 4.55019C38.2994 4.45873 38.0822 4.34441 37.8993 4.23008C37.7163 4.10432 37.5792 3.9557 37.4763 3.78421C37.3734 3.61272 37.3162 3.3955 37.3162 3.14398C37.3162 2.88103 37.3734 2.64094 37.4991 2.45801C37.6134 2.26366 37.7735 2.11505 37.9564 1.98929C38.1394 1.86353 38.3451 1.78349 38.5738 1.72633C38.8024 1.66916 39.0311 1.64631 39.2598 1.64631C39.637 1.64631 40.0257 1.73776 40.403 1.92068C40.7803 2.1036 41.0661 2.32083 41.2833 2.59522L42.5524 1.17756ZM27.1526 11.2497H29.1075V6.49374L33.2347 0.285816H30.9711L28.1815 4.9046L25.4262 0.285816H23.0368L27.164 6.49374V11.2497H27.1526ZM11.5013 11.2497H13.4562V6.37943H18.5895V11.2497H20.5331V0.27439H18.5781V4.71025H13.4448V0.27439H11.5013V11.2497ZM3.3612 11.2497H5.31619V1.97785H8.67738V0.27439H0V1.97785H3.3612V11.2497Z" fill="black"/>
<path d="M264.174 30.5023H269.411V31.7485H262.78V21.722H269.205V22.9568H264.174V25.9636H268.908V27.164H264.174V30.5023Z" fill="#706F6F"/>
<path d="M279.837 31.7485H278.431V22.9568H275.218V21.722H283.05V22.9568H279.837V31.7485Z" fill="#706F6F"/>
<path d="M226.881 0.377197V31.8627" stroke="#706F6F" stroke-width="0.321" stroke-miterlimit="3.864"/>
<path d="M307.87 9.35193H313.106V10.5981H306.475V0.571655H312.9V1.80638H307.87V4.81318H312.603V6.01359H307.87V9.35193Z" fill="#706F6F"/>
</svg>
